<svg  xmlns="http://www.w3.org/2000/svg" width="24" height="24" viewBox="0 0 24 24" fill="none" stroke="currentColor" stroke-width="2" stroke-linecap="round" stroke-linejoin="round">
  <path d="M9.743 7.212c-.42.63-.34.924-.18 1.45l1.456 4.497a.89.89 0 0 0 1.682.073l.137-.387a.89.89 0 0 0-.007-.534l-1.749-5.16c-.152-.444-.314-.717-.635-.973-.16-.127-.584-.257-.906-.257H7.904c-.556 0-.814.248-1.103.493-.321.274-.663.665-.986 1.136l-4.75 7.347a.93.93 0 0 0 .097 1.18l.274.28a.93.93 0 0 0 1.29.031l4.404-3.933c.263-.235.4-.553.38-.89l-.023-.402a.922.922 0 0 0-1.4-.739l-2.228 1.404M21.165 2.4l.805 2.395-2.99 3.06M7.903 16.56l1.03 3.04 12.1-12.326-.997-2.948-12.133 12.234z"/>
</svg>
 